<svg id="Layer_1" data-name="Layer 1" xmlns="http://www.w3.org/2000/svg" fill="#fff" viewBox="0 0 720 140"><title>bangazon_logo</title><path d="M149.5,54a23.91,23.91,0,0,1-3.33,12.7,23.89,23.89,0,0,1,3.33,12.7V92.24c0,8.34,2.05,14.88,6,19.24l6.15,6.79L148,130.71l-6.15-6.79a42.09,42.09,0,0,1-8.21-14.24A57.8,57.8,0,0,1,131,92.24V79.42a5.45,5.45,0,0,0-.51-2.83,4.77,4.77,0,0,0-3-.64h-9.23V57.48h9.23c1.8,0,2.69-.38,3-.64A5.4,5.4,0,0,0,131,54V41.2a57.82,57.82,0,0,1,2.57-17.45,42,42,0,0,1,8.21-14.23L148,2.72l13.72,12.44L155.53,22c-4,4.36-6,10.9-6,19.24Zm92.59,2.82a5.52,5.52,0,0,1-.51-2.82V41.2A58.14,58.14,0,0,0,239,23.75a42.38,42.38,0,0,0-8.21-14.23l-6.16-6.8L210.93,15.16l6.16,6.8c4,4.36,6,10.9,6,19.24V54a23.82,23.82,0,0,0,3.34,12.7,23.79,23.79,0,0,0-3.34,12.7V92.24c0,8.34-2.05,14.88-6,19.24l-6.16,6.79,13.72,12.44,6.16-6.79A42.43,42.43,0,0,0,239,109.68a58.12,58.12,0,0,0,2.56-17.44V79.42a5.57,5.57,0,0,1,.51-2.83A4.79,4.79,0,0,1,245,76h9.24V57.48H245C243.25,57.48,242.35,57.1,242.09,56.84Zm81.06-35,41.68,89.78H344.44l-4.75-10.14H294.8l-4.74,10.14H269.67l41.68-89.78Zm8,61.18L317.25,53l-14,30Zm44-42.71h55l-55,49.63v21.68h79V93.14h-55l55-49.64V21.83h-79Zm173.65,8.08a55.66,55.66,0,0,1,2.82,18.34,55.7,55.7,0,0,1-2.82,18.34A38,38,0,0,1,525,108.78a60.84,60.84,0,0,1-36.68,0A38,38,0,0,1,464.6,85.06a61,61,0,0,1,0-36.68,38.08,38.08,0,0,1,23.73-23.73,61,61,0,0,1,36.68,0,38.08,38.08,0,0,1,23.73,23.73ZM533.09,66.72c0-17.83-8.59-26.42-26.42-26.42s-26.42,8.59-26.42,26.42,8.59,26.42,26.42,26.42S533.09,84.54,533.09,66.72Zm93.75-44.89v56.3l-50.4-56.3H563.1v89.78h18.47V55.3l50.27,56.31h13.47V21.83ZM188.56,99a1.1,1.1,0,0,0-.77.22,1.18,1.18,0,0,0-.23.78v4.55h2V100a1.17,1.17,0,0,0-.22-.78A1.11,1.11,0,0,0,188.56,99Zm-4.15,0a1.1,1.1,0,0,0-.77.22,1.18,1.18,0,0,0-.23.78v4.55h2V100a1.17,1.17,0,0,0-.22-.78A1.11,1.11,0,0,0,184.41,99Zm11.13,3.33a9.24,9.24,0,1,1-9.23-9.23A9.2,9.2,0,0,1,195.54,102.37ZM191.71,100a2.93,2.93,0,0,0-3.15-3.15,3.23,3.23,0,0,0-2.07.64,3.26,3.26,0,0,0-2.08-.64,3.09,3.09,0,0,0-2.29.85,3.13,3.13,0,0,0-.85,2.3v6.7h10.44ZM189,79.82V76.58l-3.5,1.61Zm-11.93-58h18.47V87H177.07Zm4.46,33.44a6.32,6.32,0,0,0,.33,2.14,4.62,4.62,0,0,0,1.06,1.71,4.71,4.71,0,0,0,1.7,1.06,7.1,7.1,0,0,0,4.28,0,4.4,4.4,0,0,0,2.77-2.77,7.1,7.1,0,0,0,0-4.28,4.46,4.46,0,0,0-2.77-2.77,6.59,6.59,0,0,0-2.14-.32h-1.07v5.83h2.15V52.29c1.35.32,2,1.31,2,3,0,2.08-1,3.08-3.09,3.08s-3.08-1-3.08-3.08a3.86,3.86,0,0,1,.35-1.73,2.18,2.18,0,0,1,.88-.95l-1-1.87a4.21,4.21,0,0,0-1.76,1.86A6,6,0,0,0,181.53,55.27Zm0,16.18H192V69.29h-6.57L192,63.43V61.85H181.53V64h6.56l-6.56,5.88Zm0,7.43L192,83.74V81.36l-1.18-.55V75.57L192,75V72.64L181.53,77.5Z"/></svg>