<?xml version="1.0" encoding="utf-8"?>
<!-- Generator: Adobe Illustrator 23.0.4, SVG Export Plug-In . SVG Version: 6.00 Build 0)  -->
<svg version="1.1" id="Layer_1" xmlns="http://www.w3.org/2000/svg" xmlns:xlink="http://www.w3.org/1999/xlink" x="0px" y="0px"
	 viewBox="0 0 720 140" style="enable-background:new 0 0 720 140;" xml:space="preserve" fill="#fff">
<path  d="M149.5,54c0,5.6-1.5,9.7-3.3,12.7c1.8,3,3.3,7.1,3.3,12.7v12.8c0,8.3,2.1,14.9,6,19.2l6.2,6.8L148,130.7l-6.2-6.8
	c-3.6-4-6.3-8.8-8.2-14.2c-1.7-5.3-2.6-11.2-2.6-17.4V79.4c0-1.8-0.4-2.7-0.5-2.8c-0.3-0.3-1.2-0.6-2.9-0.6h-9.2V57.5h9.2
	c1.8,0,2.7-0.4,2.9-0.6c0.1-0.1,0.5-1,0.5-2.8V41.2c0-6.3,0.9-12.2,2.6-17.4c1.9-5.4,4.6-10.3,8.2-14.2l6.2-6.8l13.7,12.4l-6.2,6.8
	c-4,4.4-6,10.9-6,19.2V54z M242.1,56.8c-0.1-0.1-0.5-1-0.5-2.8V41.2c0-6.3-0.9-12.2-2.6-17.4c-1.9-5.4-4.6-10.3-8.2-14.2l-6.2-6.8
	l-13.7,12.4l6.2,6.8c4,4.4,6,10.9,6,19.2V54c0,5.6,1.5,9.7,3.3,12.7c-1.8,3-3.3,7.1-3.3,12.7v12.8c0,8.3-2.1,14.9-6,19.2l-6.2,6.8
	l13.7,12.4l6.2-6.8c3.6-4,6.3-8.8,8.2-14.2c1.7-5.3,2.6-11.2,2.6-17.4V79.4c0-1.8,0.4-2.7,0.5-2.8c0.3-0.3,1.2-0.6,2.9-0.6h9.2V57.5
	H245C243.2,57.5,242.4,57.1,242.1,56.8z M323.1,21.8l41.7,89.8h-20.4l-4.7-10.1h-44.9l-4.7,10.1h-20.4l41.7-89.8H323.1z M331.1,83
	l-13.9-30l-14,30H331.1z M375.1,40.3h55l-55,49.6v21.7h79V93.1h-55l55-49.6V21.8h-79V40.3z M548.7,48.4c1.9,5.5,2.8,11.7,2.8,18.3
	s-0.9,12.8-2.8,18.3c-2.1,5.6-5.1,10.6-9.1,14.6c-4,4-9,7.1-14.6,9.1c-5.5,1.8-11.7,2.8-18.3,2.8c-6.7,0-12.8-1-18.3-2.8
	c-5.6-2.1-10.6-5.1-14.6-9.1c-4-4-7.1-9-9.1-14.6c-1.8-5.5-2.8-11.7-2.8-18.3s1-12.8,2.8-18.3c2.1-5.6,5.1-10.6,9.1-14.6
	c4-4,9-7.1,14.6-9.1c5.5-1.9,11.7-2.8,18.3-2.8c6.7,0,12.8,0.9,18.3,2.8c5.6,2.1,10.6,5.1,14.6,9.1
	C543.6,37.7,546.7,42.7,548.7,48.4z M533.1,66.7c0-17.8-8.6-26.4-26.4-26.4c-17.8,0-26.4,8.6-26.4,26.4c0,17.8,8.6,26.4,26.4,26.4
	C524.5,93.1,533.1,84.5,533.1,66.7z M626.8,21.8v56.3l-50.4-56.3h-13.3v89.8h18.5V55.3l50.3,56.3h13.5V21.8H626.8z M188.6,99
	c-0.3,0-0.6,0-0.8,0.2c-0.2,0.2-0.2,0.5-0.2,0.8v4.6h2V100c0-0.3,0-0.6-0.2-0.8C189.2,99.1,188.8,99,188.6,99z M184.4,99
	c-0.3,0-0.6,0-0.8,0.2c-0.2,0.2-0.2,0.5-0.2,0.8v4.6h2V100c0-0.3,0-0.6-0.2-0.8C185,99.1,184.7,99,184.4,99z M195.5,102.4
	c0,5.1-4.1,9.2-9.2,9.2c-5.1,0-9.2-4.1-9.2-9.2c0-5,4.1-9.2,9.2-9.2C191.4,93.1,195.5,97.4,195.5,102.4z M191.7,100
	c0-1.2-0.5-1.9-0.9-2.3s-1.1-0.9-2.3-0.9c-1,0-1.7,0.3-2.1,0.6c-0.4-0.3-1.1-0.6-2.1-0.6c-1.2,0-1.9,0.5-2.3,0.9
	c-0.4,0.4-0.9,1.1-0.9,2.3v6.7h10.4V100z M189,79.8v-3.2l-3.5,1.6L189,79.8z M177.1,21.8h18.5V87h-18.5V21.8z M181.5,55.3
	c0,0.8,0.1,1.5,0.3,2.1c0.2,0.7,0.6,1.2,1.1,1.7c0.5,0.5,1,0.8,1.7,1.1c0.6,0.2,1.4,0.3,2.1,0.3c0.8,0,1.5-0.1,2.1-0.3
	c0.7-0.2,1.2-0.6,1.7-1.1c0.5-0.5,0.8-1,1.1-1.7c0.2-0.6,0.3-1.4,0.3-2.1c0-0.8-0.1-1.5-0.3-2.1c-0.2-0.7-0.6-1.2-1.1-1.7
	c-0.5-0.5-1-0.8-1.7-1.1c-0.6-0.2-1.4-0.3-2.1-0.3h-1.1v5.8h2.2v-3.6c1.3,0.3,2,1.3,2,3c0,2.1-1,3.1-3.1,3.1s-3.1-1-3.1-3.1
	c0-0.7,0.1-1.3,0.3-1.7c0.2-0.4,0.5-0.7,0.9-0.9l-1-1.9c-0.8,0.4-1.4,1.1-1.8,1.9C181.7,53.3,181.5,54.3,181.5,55.3z M181.5,71.4
	H192v-2.2h-6.6l6.6-5.9v-1.6h-10.5V64h6.6l-6.6,5.9V71.4z M181.5,78.9l10.5,4.9v-2.4l-1.2-0.6v-5.2L192,75v-2.4l-10.5,4.9V78.9z"/>
<rect x="177" y="22" width="19" height="65" fill="#2dd6c0"/>
<circle cx="186" cy="102" r="10" fill="#2dd6c0"/>
</svg>
